<svg xmlns="http://www.w3.org/2000/svg" width="1200" height="630" viewBox="0 0 1200 630">
  <defs>
    <clipPath id="clip1">
      <rect width="1200" height="630"/>
    </clipPath>
  </defs>

  <!-- Background -->
  <rect width="1200" height="630" fill="#070a0f"/>

  <!-- Grid lines subtle -->
  <line x1="0" y1="105" x2="1200" y2="105" stroke="#1a2235" stroke-width="1"/>
  <line x1="0" y1="210" x2="1200" y2="210" stroke="#1a2235" stroke-width="1"/>
  <line x1="0" y1="315" x2="1200" y2="315" stroke="#1a2235" stroke-width="1"/>
  <line x1="0" y1="420" x2="1200" y2="420" stroke="#1a2235" stroke-width="1"/>
  <line x1="0" y1="525" x2="1200" y2="525" stroke="#1a2235" stroke-width="1"/>
  <line x1="200" y1="0" x2="200" y2="630" stroke="#1a2235" stroke-width="1"/>
  <line x1="400" y1="0" x2="400" y2="630" stroke="#1a2235" stroke-width="1"/>
  <line x1="600" y1="0" x2="600" y2="630" stroke="#1a2235" stroke-width="1"/>
  <line x1="800" y1="0" x2="800" y2="630" stroke="#1a2235" stroke-width="1"/>
  <line x1="1000" y1="0" x2="1000" y2="630" stroke="#1a2235" stroke-width="1"/>

  <!-- Accent border top -->
  <rect x="0" y="0" width="1200" height="3" fill="#00ff88"/>

  <!-- Candlestick chart - right side decorative -->
  <!-- Green candles -->
  <line x1="680" y1="340" x2="680" y2="290" stroke="#00ff88" stroke-width="1.5"/>
  <rect x="672" y="300" width="16" height="32" fill="#00ff88" rx="1"/>
  <line x1="680" y1="340" x2="680" y2="350" stroke="#00ff88" stroke-width="1.5"/>

  <line x1="720" y1="280" x2="720" y2="240" stroke="#00ff88" stroke-width="1.5"/>
  <rect x="712" y="248" width="16" height="28" fill="#00ff88" rx="1"/>
  <line x1="720" y1="290" x2="720" y2="310" stroke="#00ff88" stroke-width="1.5"/>

  <!-- Red candles -->
  <line x1="760" y1="255" x2="760" y2="220" stroke="#ff3d5a" stroke-width="1.5"/>
  <rect x="752" y="260" width="16" height="30" fill="#ff3d5a" rx="1"/>
  <line x1="760" y1="300" x2="760" y2="310" stroke="#ff3d5a" stroke-width="1.5"/>

  <line x1="800" y1="265" x2="800" y2="230" stroke="#ff3d5a" stroke-width="1.5"/>
  <rect x="792" y="270" width="16" height="24" fill="#ff3d5a" rx="1"/>
  <line x1="800" y1="300" x2="800" y2="312" stroke="#ff3d5a" stroke-width="1.5"/>

  <!-- Green recovery candles -->
  <line x1="840" y1="250" x2="840" y2="215" stroke="#00ff88" stroke-width="1.5"/>
  <rect x="832" y="222" width="16" height="26" fill="#00ff88" rx="1"/>
  <line x1="840" y1="260" x2="840" y2="275" stroke="#00ff88" stroke-width="1.5"/>

  <line x1="880" y1="215" x2="880" y2="175" stroke="#00ff88" stroke-width="1.5"/>
  <rect x="872" y="183" width="16" height="30" fill="#00ff88" rx="1"/>
  <line x1="880" y1="225" x2="880" y2="240" stroke="#00ff88" stroke-width="1.5"/>

  <line x1="920" y1="200" x2="920" y2="165" stroke="#00ff88" stroke-width="1.5"/>
  <rect x="912" y="170" width="16" height="28" fill="#00ff88" rx="1"/>
  <line x1="920" y1="205" x2="920" y2="218" stroke="#00ff88" stroke-width="1.5"/>

  <!-- Red dip -->
  <line x1="960" y1="175" x2="960" y2="150" stroke="#ff3d5a" stroke-width="1.5"/>
  <rect x="952" y="180" width="16" height="26" fill="#ff3d5a" rx="1"/>
  <line x1="960" y1="210" x2="960" y2="222" stroke="#ff3d5a" stroke-width="1.5"/>

  <line x1="1000" y1="185" x2="1000" y2="155" stroke="#ff3d5a" stroke-width="1.5"/>
  <rect x="992" y="190" width="16" height="22" fill="#ff3d5a" rx="1"/>
  <line x1="1000" y1="218" x2="1000" y2="230" stroke="#ff3d5a" stroke-width="1.5"/>

  <!-- Big green breakout -->
  <line x1="1040" y1="170" x2="1040" y2="120" stroke="#00ff88" stroke-width="1.5"/>
  <rect x="1032" y="128" width="16" height="40" fill="#00ff88" rx="1"/>
  <line x1="1040" y1="180" x2="1040" y2="196" stroke="#00ff88" stroke-width="1.5"/>

  <line x1="1080" y1="140" x2="1080" y2="100" stroke="#00ff88" stroke-width="1.5"/>
  <rect x="1072" y="106" width="16" height="32" fill="#00ff88" rx="1"/>
  <line x1="1080" y1="148" x2="1080" y2="160" stroke="#00ff88" stroke-width="1.5"/>

  <line x1="1120" y1="118" x2="1120" y2="82" stroke="#00ff88" stroke-width="1.5"/>
  <rect x="1112" y="88" width="16" height="28" fill="#00ff88" rx="1"/>
  <line x1="1120" y1="125" x2="1120" y2="138" stroke="#00ff88" stroke-width="1.5"/>

  <!-- Volume bars bottom right -->
  <rect x="672" y="490" width="16" height="65" fill="#00ff88" opacity="0.4" rx="1"/>
  <rect x="712" y="470" width="16" height="85" fill="#00ff88" opacity="0.4" rx="1"/>
  <rect x="752" y="510" width="16" height="45" fill="#ff3d5a" opacity="0.4" rx="1"/>
  <rect x="792" y="505" width="16" height="50" fill="#ff3d5a" opacity="0.4" rx="1"/>
  <rect x="832" y="480" width="16" height="75" fill="#00ff88" opacity="0.4" rx="1"/>
  <rect x="872" y="455" width="16" height="100" fill="#00ff88" opacity="0.4" rx="1"/>
  <rect x="912" y="465" width="16" height="90" fill="#00ff88" opacity="0.4" rx="1"/>
  <rect x="952" y="500" width="16" height="55" fill="#ff3d5a" opacity="0.4" rx="1"/>
  <rect x="992" y="495" width="16" height="60" fill="#ff3d5a" opacity="0.4" rx="1"/>
  <rect x="1032" y="440" width="16" height="115" fill="#00ff88" opacity="0.4" rx="1"/>
  <rect x="1072" y="430" width="16" height="125" fill="#00ff88" opacity="0.4" rx="1"/>
  <rect x="1112" y="420" width="16" height="135" fill="#00ff88" opacity="0.4" rx="1"/>

  
  <!-- Left side: Logo + tagline -->
  <!-- Logo -->
  <text x="60" y="130" font-family="'Arial Black', sans-serif" font-weight="900" font-size="72" fill="#e2e8f0" letter-spacing="-2">CRYP</text>
  <text x="290" y="130" font-family="'Arial Black', sans-serif" font-weight="900" font-size="72" fill="#00ff88" letter-spacing="-2">VIEW</text>

  <!-- Tagline -->
  <text x="60" y="185" font-family="'Courier New', monospace" font-size="20" fill="#4a5568" letter-spacing="3">REAL-TIME CRYPTO ANALYSIS</text>

  <!-- Divider -->
  <rect x="60" y="210" width="50" height="3" fill="#00ff88"/>

  <!-- Feature pills -->
  <!-- Pill 1 -->
  <rect x="60" y="250" width="170" height="36" rx="4" fill="#0d1117" stroke="#1a2235" stroke-width="1"/>
  <circle cx="86" cy="268" r="5" fill="#00ff88"/>
  <text x="100" y="273" font-family="'Courier New', monospace" font-size="14" fill="#e2e8f0">34 Indicateurs</text>

  <!-- Pill 2 -->
  <rect x="242" y="250" width="160" height="36" rx="4" fill="#0d1117" stroke="#1a2235" stroke-width="1"/>
  <circle cx="268" cy="268" r="5" fill="#00ff88"/>
  <text x="282" y="273" font-family="'Courier New', monospace" font-size="14" fill="#e2e8f0">500+ Paires</text>

  <!-- Pill 3 -->
  <rect x="414" y="250" width="140" height="36" rx="4" fill="#0d1117" stroke="#1a2235" stroke-width="1"/>
  <circle cx="440" cy="268" r="5" fill="#00ff88"/>
  <text x="454" y="273" font-family="'Courier New', monospace" font-size="14" fill="#e2e8f0">Footprint</text>

  <!-- Pill 4 -->
  <rect x="60" y="300" width="130" height="36" rx="4" fill="#0d1117" stroke="#1a2235" stroke-width="1"/>
  <circle cx="86" cy="318" r="5" fill="#00ff88"/>
  <text x="100" y="323" font-family="'Courier New', monospace" font-size="14" fill="#e2e8f0">Alertes</text>

  <!-- Pill 5 -->
  <rect x="202" y="300" width="160" height="36" rx="4" fill="#0d1117" stroke="#1a2235" stroke-width="1"/>
  <circle cx="228" cy="318" r="5" fill="#00ff88"/>
  <text x="242" y="323" font-family="'Courier New', monospace" font-size="14" fill="#e2e8f0">Multi-Charts</text>

  <!-- Pill 6 -->
  <rect x="374" y="300" width="180" height="36" rx="4" fill="#0d1117" stroke="#1a2235" stroke-width="1"/>
  <circle cx="400" cy="318" r="5" fill="#00ff88"/>
  <text x="414" y="323" font-family="'Courier New', monospace" font-size="14" fill="#e2e8f0">Paper Trading</text>

  <!-- Live price ticker mockup -->
  <rect x="60" y="370" width="560" height="80" rx="4" fill="#0d1117" stroke="#1a2235" stroke-width="1"/>
  <rect x="60" y="370" width="4" height="80" fill="#00ff88" rx="2"/>
  <text x="80" y="400" font-family="'Arial Black', sans-serif" font-weight="900" font-size="22" fill="#e2e8f0">BTC/USDT</text>
  <text x="80" y="430" font-family="'Courier New', monospace" font-size="28" fill="#00ff88" font-weight="bold">$67,432.80</text>
  <text x="330" y="430" font-family="'Courier New', monospace" font-size="18" fill="#00ff88">+2.47%</text>
  <circle cx="570" cy="387" r="6" fill="#00ff88"/>
  <text x="582" y="390" font-family="'Courier New', monospace" font-size="12" fill="#4a5568">LIVE</text>

  <!-- Bottom URL -->
  <text x="60" y="580" font-family="'Courier New', monospace" font-size="16" fill="#4a5568">ezilryb.github.io/CRYPVIEW</text>

  <!-- Free badge -->
  <rect x="410" y="560" width="180" height="36" rx="4" fill="rgba(0,255,136,0.1)" stroke="#00ff88" stroke-width="1"/>
  <text x="475" y="583" font-family="'Courier New', monospace" font-size="14" fill="#00ff88" text-anchor="middle">100% GRATUIT</text>
  <text x="530" y="583" font-family="'Courier New', monospace" font-size="14" fill="#00ff88">· MIT</text>

</svg>
