<svg width="1080" height="1080" viewBox="0 0 1080 1080" xmlns="http://www.w3.org/2000/svg">
  <defs>
    <pattern id="grid" width="60" height="60" patternUnits="userSpaceOnUse">
      <path d="M60 0 L0 0 0 60" fill="none" stroke="#00ff88" stroke-width="0.3" opacity="0.07"/>
    </pattern>
    <pattern id="scan" width="1080" height="4" patternUnits="userSpaceOnUse">
      <rect width="1080" height="2" fill="#00ff88" opacity="0.008"/>
    </pattern>
    <filter id="gg" x="-50%" y="-50%" width="200%" height="200%">
      <feGaussianBlur in="SourceAlpha" stdDeviation="6" result="b"/>
      <feFlood flood-color="#00ff88" flood-opacity="0.55" result="c"/>
      <feComposite in="c" in2="b" operator="in" result="g"/>
      <feMerge><feMergeNode in="g"/><feMergeNode in="SourceGraphic"/></feMerge>
    </filter>
    <filter id="gc" x="-50%" y="-50%" width="200%" height="200%">
      <feGaussianBlur in="SourceAlpha" stdDeviation="6" result="b"/>
      <feFlood flood-color="#00c8ff" flood-opacity="0.55" result="c"/>
      <feComposite in="c" in2="b" operator="in" result="g"/>
      <feMerge><feMergeNode in="g"/><feMergeNode in="SourceGraphic"/></feMerge>
    </filter>
    <filter id="go" x="-50%" y="-50%" width="200%" height="200%">
      <feGaussianBlur in="SourceAlpha" stdDeviation="5" result="b"/>
      <feFlood flood-color="#ff9900" flood-opacity="0.5" result="c"/>
      <feComposite in="c" in2="b" operator="in" result="g"/>
      <feMerge><feMergeNode in="g"/><feMergeNode in="SourceGraphic"/></feMerge>
    </filter>
    <filter id="gp" x="-50%" y="-50%" width="200%" height="200%">
      <feGaussianBlur in="SourceAlpha" stdDeviation="5" result="b"/>
      <feFlood flood-color="#e040fb" flood-opacity="0.5" result="c"/>
      <feComposite in="c" in2="b" operator="in" result="g"/>
      <feMerge><feMergeNode in="g"/><feMergeNode in="SourceGraphic"/></feMerge>
    </filter>
    <filter id="gr" x="-50%" y="-50%" width="200%" height="200%">
      <feGaussianBlur in="SourceAlpha" stdDeviation="5" result="b"/>
      <feFlood flood-color="#ff3d5a" flood-opacity="0.5" result="c"/>
      <feComposite in="c" in2="b" operator="in" result="g"/>
      <feMerge><feMergeNode in="g"/><feMergeNode in="SourceGraphic"/></feMerge>
    </filter>
    <radialGradient id="orb-g" cx="50%" cy="50%" r="50%">
      <stop offset="0%" stop-color="#00ff88" stop-opacity="0.13"/>
      <stop offset="100%" stop-color="#00ff88" stop-opacity="0"/>
    </radialGradient>
    <radialGradient id="orb-c" cx="50%" cy="50%" r="50%">
      <stop offset="0%" stop-color="#00c8ff" stop-opacity="0.10"/>
      <stop offset="100%" stop-color="#00c8ff" stop-opacity="0"/>
    </radialGradient>
    <radialGradient id="orb-o" cx="50%" cy="50%" r="50%">
      <stop offset="0%" stop-color="#ff9900" stop-opacity="0.10"/>
      <stop offset="100%" stop-color="#ff9900" stop-opacity="0"/>
    </radialGradient>
    <radialGradient id="orb-p" cx="50%" cy="50%" r="50%">
      <stop offset="0%" stop-color="#e040fb" stop-opacity="0.10"/>
      <stop offset="100%" stop-color="#e040fb" stop-opacity="0"/>
    </radialGradient>
    <linearGradient id="line-g" x1="0" y1="0" x2="1" y2="0">
      <stop offset="0%" stop-color="#00ff88" stop-opacity="0"/>
      <stop offset="50%" stop-color="#00ff88" stop-opacity="0.8"/>
      <stop offset="100%" stop-color="#00ff88" stop-opacity="0"/>
    </linearGradient>
    <linearGradient id="line-c" x1="0" y1="0" x2="1" y2="0">
      <stop offset="0%" stop-color="#00c8ff" stop-opacity="0"/>
      <stop offset="50%" stop-color="#00c8ff" stop-opacity="0.8"/>
      <stop offset="100%" stop-color="#00c8ff" stop-opacity="0"/>
    </linearGradient>
  </defs>
  <rect width="1080" height="1080" fill="#070a0f"/>
  <rect width="1080" height="1080" fill="url(#grid)"/>
  <rect width="1080" height="1080" fill="url(#scan)"/>
  <ellipse cx="540" cy="400" rx="580" ry="380" fill="url(#orb-g)" opacity="0.6"/>
  <path d="M60 115 L60 60 L115 60" fill="none" stroke="#00ff88" stroke-width="1.5" opacity="0.2"/>
  <path d="M965 60 L1020 60 L1020 115" fill="none" stroke="#00ff88" stroke-width="1.5" opacity="0.2"/>
  <path d="M60 965 L60 1020 L115 1020" fill="none" stroke="#00ff88" stroke-width="1.5" opacity="0.2"/>
  <path d="M965 1020 L1020 1020 L1020 965" fill="none" stroke="#00ff88" stroke-width="1.5" opacity="0.2"/>
  <text x="64" y="104" font-family="'Syne', 'Arial Black', 'Helvetica Neue', sans-serif" font-size="20" font-weight="800" letter-spacing="3" fill="#8b949e">CRYP<tspan fill="#00ff88">VIEW</tspan></text>
  <rect x="840" y="75" width="136.5" height="22" rx="2" fill="none" stroke="#00ff88" stroke-width="1" opacity="0.4"/>
  <text x="852" y="90" font-family="'Space Mono', 'Courier New', monospace" font-size="10" fill="#00ff88" letter-spacing="1.5" opacity="0.8">BILAN DU PROJET</text>
  <line x1="64" y1="130" x2="1016" y2="130" stroke="#1c2333" stroke-width="1"/>
  <text x="64" y="240" font-family="'Space Mono', 'Courier New', monospace" font-size="13" fill="#00ff88" letter-spacing="3">06 MARS → AVRIL 2026</text>
  <text x="64" y="390" font-family="'Syne', 'Arial Black', 'Helvetica Neue', sans-serif" font-size="180" font-weight="800" fill="#00ff88" filter="url(#gg)">70+</text>
  <text x="64" y="470" font-family="'Syne', 'Arial Black', 'Helvetica Neue', sans-serif" font-size="44" font-weight="400" fill="#8b949e" letter-spacing="3">commits</text>
  <rect x="64" y="500" width="80" height="3" fill="#00ff88" rx="1"/>
  <!-- Stats -->
  <text x="64"  y="580" font-family="'Syne', 'Arial Black', 'Helvetica Neue', sans-serif" font-size="36" font-weight="800" fill="#e6edf3">4+</text>
  <text x="200" y="580" font-family="'Syne', 'Arial Black', 'Helvetica Neue', sans-serif" font-size="36" font-weight="800" fill="#e6edf3">19+</text>
  <text x="400" y="580" font-family="'Syne', 'Arial Black', 'Helvetica Neue', sans-serif" font-size="36" font-weight="800" fill="#e6edf3">8</text>
  <text x="560" y="580" font-family="'Syne', 'Arial Black', 'Helvetica Neue', sans-serif" font-size="36" font-weight="800" fill="#e6edf3">~3 mois</text>
  <text x="64"  y="606" font-family="'Space Mono', 'Courier New', monospace" font-size="10" fill="#8b949e" letter-spacing="1">MOIS DE DEV</text>
  <text x="200" y="606" font-family="'Space Mono', 'Courier New', monospace" font-size="10" fill="#8b949e" letter-spacing="1">INDICATEURS</text>
  <text x="400" y="606" font-family="'Space Mono', 'Courier New', monospace" font-size="10" fill="#8b949e" letter-spacing="1">LAYOUTS</text>
  <text x="560" y="606" font-family="'Space Mono', 'Courier New', monospace" font-size="10" fill="#8b949e" letter-spacing="1">SOLO</text>
  <!-- Activity chart -->
  <text x="64" y="660" font-family="'Space Mono', 'Courier New', monospace" font-size="11" fill="#2d3748" letter-spacing="2">ACTIVITÉ HEBDOMADAIRE</text>
    <rect x="64" y="740" width="36" height="20" fill="#00ff88" rx="2" opacity="0.42"/>  <rect x="110" y="730" width="36" height="30" fill="#00ff88" rx="2" opacity="0.47"/>  <rect x="156" y="750" width="36" height="10" fill="#00ff88" rx="2" opacity="0.36"/>  <rect x="202" y="720" width="36" height="40" fill="#00ff88" rx="2" opacity="0.53"/>  <rect x="248" y="740" width="36" height="20" fill="#00ff88" rx="2" opacity="0.42"/>  <rect x="294" y="710" width="36" height="50" fill="#00ff88" rx="2" opacity="0.59"/>  <rect x="340" y="730" width="36" height="30" fill="#00ff88" rx="2" opacity="0.47"/>  <rect x="386" y="700" width="36" height="60" fill="#00ff88" rx="2" opacity="0.65"/>  <rect x="432" y="720" width="36" height="40" fill="#00ff88" rx="2" opacity="0.53"/>  <rect x="478" y="690" width="36" height="70" fill="#00ff88" rx="2" opacity="0.71"/>  <rect x="524" y="710" width="36" height="50" fill="#00ff88" rx="2" opacity="0.59"/>  <rect x="570" y="680" width="36" height="80" fill="#00ff88" rx="2" opacity="0.77"/>  <rect x="616" y="700" width="36" height="60" fill="#00ff88" rx="2" opacity="0.65"/>  <rect x="662" y="670" width="36" height="90" fill="#00ff88" rx="2" opacity="0.82"/>  <rect x="708" y="680" width="36" height="80" fill="#00ff88" rx="2" opacity="0.77"/>  <rect x="754" y="660" width="36" height="100" fill="#00ff88" rx="2" opacity="0.88"/>  <rect x="800" y="670" width="36" height="90" fill="#00ff88" rx="2" opacity="0.82"/>  <rect x="846" y="650" width="36" height="110" fill="#00ff88" rx="2" opacity="0.94"/>  <rect x="892" y="660" width="36" height="100" fill="#00ff88" rx="2" opacity="0.88"/>  <rect x="938" y="640" width="36" height="120" fill="#00ff88" rx="2" opacity="1.00"/>
  <text x="64" y="790" font-family="'Space Mono', 'Courier New', monospace" font-size="10" fill="#2d3748" opacity="0.5">Mars</text>
  <text x="478" y="790" font-family="'Space Mono', 'Courier New', monospace" font-size="10" fill="#2d3748" opacity="0.5">Avril</text>
  <text x="800" y="790" font-family="'Space Mono', 'Courier New', monospace" font-size="10" fill="#2d3748" opacity="0.5">Mai</text>
  <line x1="60" y1="1028" x2="1020" y2="1028" stroke="#1c2333" stroke-width="1"/>
  <text x="540" y="1052" font-family="'Space Mono', 'Courier New', monospace" font-size="11" fill="#2d3748" text-anchor="middle" letter-spacing="2" opacity="0.7">crypview.betacapital.enterprise</text>
</svg>