<svg width="1080" height="1080" viewBox="0 0 1080 1080" xmlns="http://www.w3.org/2000/svg">
  <defs>
    <pattern id="grid" width="60" height="60" patternUnits="userSpaceOnUse">
      <path d="M60 0 L0 0 0 60" fill="none" stroke="#00ff88" stroke-width="0.3" opacity="0.07"/>
    </pattern>
    <pattern id="scan" width="1080" height="4" patternUnits="userSpaceOnUse">
      <rect width="1080" height="2" fill="#00ff88" opacity="0.008"/>
    </pattern>
    <filter id="gg" x="-50%" y="-50%" width="200%" height="200%">
      <feGaussianBlur in="SourceAlpha" stdDeviation="6" result="b"/>
      <feFlood flood-color="#00ff88" flood-opacity="0.55" result="c"/>
      <feComposite in="c" in2="b" operator="in" result="g"/>
      <feMerge><feMergeNode in="g"/><feMergeNode in="SourceGraphic"/></feMerge>
    </filter>
    <filter id="gc" x="-50%" y="-50%" width="200%" height="200%">
      <feGaussianBlur in="SourceAlpha" stdDeviation="6" result="b"/>
      <feFlood flood-color="#00c8ff" flood-opacity="0.55" result="c"/>
      <feComposite in="c" in2="b" operator="in" result="g"/>
      <feMerge><feMergeNode in="g"/><feMergeNode in="SourceGraphic"/></feMerge>
    </filter>
    <filter id="go" x="-50%" y="-50%" width="200%" height="200%">
      <feGaussianBlur in="SourceAlpha" stdDeviation="5" result="b"/>
      <feFlood flood-color="#ff9900" flood-opacity="0.5" result="c"/>
      <feComposite in="c" in2="b" operator="in" result="g"/>
      <feMerge><feMergeNode in="g"/><feMergeNode in="SourceGraphic"/></feMerge>
    </filter>
    <filter id="gp" x="-50%" y="-50%" width="200%" height="200%">
      <feGaussianBlur in="SourceAlpha" stdDeviation="5" result="b"/>
      <feFlood flood-color="#e040fb" flood-opacity="0.5" result="c"/>
      <feComposite in="c" in2="b" operator="in" result="g"/>
      <feMerge><feMergeNode in="g"/><feMergeNode in="SourceGraphic"/></feMerge>
    </filter>
    <filter id="gr" x="-50%" y="-50%" width="200%" height="200%">
      <feGaussianBlur in="SourceAlpha" stdDeviation="5" result="b"/>
      <feFlood flood-color="#ff3d5a" flood-opacity="0.5" result="c"/>
      <feComposite in="c" in2="b" operator="in" result="g"/>
      <feMerge><feMergeNode in="g"/><feMergeNode in="SourceGraphic"/></feMerge>
    </filter>
    <radialGradient id="orb-g" cx="50%" cy="50%" r="50%">
      <stop offset="0%" stop-color="#00ff88" stop-opacity="0.13"/>
      <stop offset="100%" stop-color="#00ff88" stop-opacity="0"/>
    </radialGradient>
    <radialGradient id="orb-c" cx="50%" cy="50%" r="50%">
      <stop offset="0%" stop-color="#00c8ff" stop-opacity="0.10"/>
      <stop offset="100%" stop-color="#00c8ff" stop-opacity="0"/>
    </radialGradient>
    <radialGradient id="orb-o" cx="50%" cy="50%" r="50%">
      <stop offset="0%" stop-color="#ff9900" stop-opacity="0.10"/>
      <stop offset="100%" stop-color="#ff9900" stop-opacity="0"/>
    </radialGradient>
    <radialGradient id="orb-p" cx="50%" cy="50%" r="50%">
      <stop offset="0%" stop-color="#e040fb" stop-opacity="0.10"/>
      <stop offset="100%" stop-color="#e040fb" stop-opacity="0"/>
    </radialGradient>
    <linearGradient id="line-g" x1="0" y1="0" x2="1" y2="0">
      <stop offset="0%" stop-color="#00ff88" stop-opacity="0"/>
      <stop offset="50%" stop-color="#00ff88" stop-opacity="0.8"/>
      <stop offset="100%" stop-color="#00ff88" stop-opacity="0"/>
    </linearGradient>
    <linearGradient id="line-c" x1="0" y1="0" x2="1" y2="0">
      <stop offset="0%" stop-color="#00c8ff" stop-opacity="0"/>
      <stop offset="50%" stop-color="#00c8ff" stop-opacity="0.8"/>
      <stop offset="100%" stop-color="#00c8ff" stop-opacity="0"/>
    </linearGradient>
  </defs>
  <rect width="1080" height="1080" fill="#070a0f"/>
  <rect width="1080" height="1080" fill="url(#grid)"/>
  <rect width="1080" height="1080" fill="url(#scan)"/>
  <ellipse cx="300" cy="600" rx="400" ry="400" fill="url(#orb-g)" opacity="0.4"/>
  <path d="M60 110 L60 60 L110 60" fill="none" stroke="#00ff88" stroke-width="1.5" opacity="0.2"/>
  <path d="M970 60 L1020 60 L1020 110" fill="none" stroke="#00ff88" stroke-width="1.5" opacity="0.2"/>
  <path d="M60 970 L60 1020 L110 1020" fill="none" stroke="#00ff88" stroke-width="1.5" opacity="0.2"/>
  <path d="M970 1020 L1020 1020 L1020 970" fill="none" stroke="#00ff88" stroke-width="1.5" opacity="0.2"/>
  <text x="64" y="104" font-family="'Syne', 'Arial Black', 'Helvetica Neue', sans-serif" font-size="18" font-weight="800" letter-spacing="3" fill="#8b949e">CRYP<tspan fill="#00ff88">VIEW</tspan></text>
  <rect x="830" y="75" width="136.5" height="22" rx="2" fill="none" stroke="#00ff88" stroke-width="1" opacity="0.4"/>
  <text x="842" y="90" font-family="'Space Mono', 'Courier New', monospace" font-size="10" fill="#00ff88" letter-spacing="1.5" opacity="0.8">FOOTPRINT CHART</text>
  <line x1="64" y1="130" x2="1016" y2="130" stroke="#1c2333" stroke-width="1"/>
  <text x="64" y="270" font-family="'Space Mono', 'Courier New', monospace" font-size="13" fill="#00ff88" letter-spacing="3">ASK / BID PAR NIVEAU DE PRIX</text>
  <text x="64" y="370" font-family="'Syne', 'Arial Black', 'Helvetica Neue', sans-serif" font-size="72" font-weight="800" fill="#e6edf3">Lire chaque</text>
  <text x="64" y="455" font-family="'Syne', 'Arial Black', 'Helvetica Neue', sans-serif" font-size="72" font-weight="800" fill="#00ff88" filter="url(#gg)">bougie.</text>
  <rect x="64" y="485" width="60" height="3" fill="#00ff88" rx="1"/>
  <text x="64" y="545" font-family="'Space Mono', 'Courier New', monospace" font-size="16" fill="#8b949e">Flux acheteur/vendeur par niveau de prix.</text>
  <text x="64" y="571" font-family="'Space Mono', 'Courier New', monospace" font-size="16" fill="#8b949e">Détection automatique imbalance ≥ 3×.</text>
  <!-- Footprint mock -->
  <rect x="64" y="600" width="952" height="500" rx="4" fill="#0d1117" stroke="#1c2333" stroke-width="1"/>
    <text x="72" y="632" font-family="'Space Mono', 'Courier New', monospace" font-size="10" fill="#8b949e">67600</text>
  <rect x="160" y="615" width="106" height="52" fill="#00ff88" rx="1" opacity="0.7"/>
  <rect x="540" y="615" width="26" fill="#ff3d5a" height="52" rx="1" opacity="0.7"/>
    <text x="72" y="692" font-family="'Space Mono', 'Courier New', monospace" font-size="10" fill="#8b949e">67550</text>
  <rect x="160" y="675" width="160" height="52" fill="#00ff88" rx="1" opacity="0.7"/>
  <rect x="540" y="675" width="106" fill="#ff3d5a" height="52" rx="1" opacity="0.7"/>
    <text x="72" y="752" font-family="'Space Mono', 'Courier New', monospace" font-size="10" fill="#8b949e">67500</text>
  <rect x="160" y="735" width="266" height="52" fill="#00ff88" rx="1" opacity="0.7"/>
  <rect x="540" y="735" width="53" fill="#ff3d5a" height="52" rx="1" opacity="0.7"/>
  <rect x="160" y="735" width="720" height="52" fill="none" stroke="#f7c948" stroke-width="1.5" rx="1" opacity="0.6"/>  <text x="72" y="812" font-family="'Space Mono', 'Courier New', monospace" font-size="10" fill="#8b949e">67450</text>
  <rect x="160" y="795" width="80" height="52" fill="#00ff88" rx="1" opacity="0.7"/>
  <rect x="540" y="795" width="186" fill="#ff3d5a" height="52" rx="1" opacity="0.7"/>
    <text x="72" y="872" font-family="'Space Mono', 'Courier New', monospace" font-size="10" fill="#8b949e">67400</text>
  <rect x="160" y="855" width="240" height="52" fill="#00ff88" rx="1" opacity="0.7"/>
  <rect x="540" y="855" width="80" fill="#ff3d5a" height="52" rx="1" opacity="0.7"/>
  <rect x="160" y="855" width="720" height="52" fill="none" stroke="#f7c948" stroke-width="1.5" rx="1" opacity="0.6"/>  <text x="72" y="932" font-family="'Space Mono', 'Courier New', monospace" font-size="10" fill="#8b949e">67350</text>
  <rect x="160" y="915" width="133" height="52" fill="#00ff88" rx="1" opacity="0.7"/>
  <rect x="540" y="915" width="133" fill="#ff3d5a" height="52" rx="1" opacity="0.7"/>
    <text x="72" y="992" font-family="'Space Mono', 'Courier New', monospace" font-size="10" fill="#8b949e">67300</text>
  <rect x="160" y="975" width="320" height="52" fill="#00ff88" rx="1" opacity="0.7"/>
  <rect x="540" y="975" width="40" fill="#ff3d5a" height="52" rx="1" opacity="0.7"/>
  <rect x="160" y="975" width="720" height="52" fill="none" stroke="#f7c948" stroke-width="1.5" rx="1" opacity="0.6"/>  <text x="72" y="1052" font-family="'Space Mono', 'Courier New', monospace" font-size="10" fill="#8b949e">67250</text>
  <rect x="160" y="1035" width="93" height="52" fill="#00ff88" rx="1" opacity="0.7"/>
  <rect x="540" y="1035" width="213" fill="#ff3d5a" height="52" rx="1" opacity="0.7"/>
  
  <!-- Legend -->
  <circle cx="64" cy="1120" r="5" fill="#00ff88"/>
  <text x="78" y="1124" font-family="'Space Mono', 'Courier New', monospace" font-size="11" fill="#8b949e">Ask (acheteurs)</text>
  <circle cx="240" cy="1120" r="5" fill="#ff3d5a"/>
  <text x="254" y="1124" font-family="'Space Mono', 'Courier New', monospace" font-size="11" fill="#8b949e">Bid (vendeurs)</text>
  <text x="440" y="1124" font-family="'Space Mono', 'Courier New', monospace" font-size="11" fill="#f7c948">★ Imbalance ≥ 3×</text>
  <line x1="60" y1="1028" x2="1020" y2="1028" stroke="#1c2333" stroke-width="1"/>
  <text x="540" y="1052" font-family="'Space Mono', 'Courier New', monospace" font-size="11" fill="#2d3748" text-anchor="middle" letter-spacing="2" opacity="0.7">crypview.betacapital.enterprise</text>
</svg>