<svg width="1080" height="1080" viewBox="0 0 1080 1080" xmlns="http://www.w3.org/2000/svg">
  <defs>
    <pattern id="grid" width="60" height="60" patternUnits="userSpaceOnUse">
      <path d="M60 0 L0 0 0 60" fill="none" stroke="#00ff88" stroke-width="0.3" opacity="0.07"/>
    </pattern>
    <pattern id="scan" width="1080" height="4" patternUnits="userSpaceOnUse">
      <rect width="1080" height="2" fill="#00ff88" opacity="0.008"/>
    </pattern>
    <filter id="gg" x="-50%" y="-50%" width="200%" height="200%">
      <feGaussianBlur in="SourceAlpha" stdDeviation="6" result="b"/>
      <feFlood flood-color="#00ff88" flood-opacity="0.55" result="c"/>
      <feComposite in="c" in2="b" operator="in" result="g"/>
      <feMerge><feMergeNode in="g"/><feMergeNode in="SourceGraphic"/></feMerge>
    </filter>
    <filter id="gc" x="-50%" y="-50%" width="200%" height="200%">
      <feGaussianBlur in="SourceAlpha" stdDeviation="6" result="b"/>
      <feFlood flood-color="#00c8ff" flood-opacity="0.55" result="c"/>
      <feComposite in="c" in2="b" operator="in" result="g"/>
      <feMerge><feMergeNode in="g"/><feMergeNode in="SourceGraphic"/></feMerge>
    </filter>
    <filter id="go" x="-50%" y="-50%" width="200%" height="200%">
      <feGaussianBlur in="SourceAlpha" stdDeviation="5" result="b"/>
      <feFlood flood-color="#ff9900" flood-opacity="0.5" result="c"/>
      <feComposite in="c" in2="b" operator="in" result="g"/>
      <feMerge><feMergeNode in="g"/><feMergeNode in="SourceGraphic"/></feMerge>
    </filter>
    <filter id="gp" x="-50%" y="-50%" width="200%" height="200%">
      <feGaussianBlur in="SourceAlpha" stdDeviation="5" result="b"/>
      <feFlood flood-color="#e040fb" flood-opacity="0.5" result="c"/>
      <feComposite in="c" in2="b" operator="in" result="g"/>
      <feMerge><feMergeNode in="g"/><feMergeNode in="SourceGraphic"/></feMerge>
    </filter>
    <filter id="gr" x="-50%" y="-50%" width="200%" height="200%">
      <feGaussianBlur in="SourceAlpha" stdDeviation="5" result="b"/>
      <feFlood flood-color="#ff3d5a" flood-opacity="0.5" result="c"/>
      <feComposite in="c" in2="b" operator="in" result="g"/>
      <feMerge><feMergeNode in="g"/><feMergeNode in="SourceGraphic"/></feMerge>
    </filter>
    <radialGradient id="orb-g" cx="50%" cy="50%" r="50%">
      <stop offset="0%" stop-color="#00ff88" stop-opacity="0.13"/>
      <stop offset="100%" stop-color="#00ff88" stop-opacity="0"/>
    </radialGradient>
    <radialGradient id="orb-c" cx="50%" cy="50%" r="50%">
      <stop offset="0%" stop-color="#00c8ff" stop-opacity="0.10"/>
      <stop offset="100%" stop-color="#00c8ff" stop-opacity="0"/>
    </radialGradient>
    <radialGradient id="orb-o" cx="50%" cy="50%" r="50%">
      <stop offset="0%" stop-color="#ff9900" stop-opacity="0.10"/>
      <stop offset="100%" stop-color="#ff9900" stop-opacity="0"/>
    </radialGradient>
    <radialGradient id="orb-p" cx="50%" cy="50%" r="50%">
      <stop offset="0%" stop-color="#e040fb" stop-opacity="0.10"/>
      <stop offset="100%" stop-color="#e040fb" stop-opacity="0"/>
    </radialGradient>
    <linearGradient id="line-g" x1="0" y1="0" x2="1" y2="0">
      <stop offset="0%" stop-color="#00ff88" stop-opacity="0"/>
      <stop offset="50%" stop-color="#00ff88" stop-opacity="0.8"/>
      <stop offset="100%" stop-color="#00ff88" stop-opacity="0"/>
    </linearGradient>
    <linearGradient id="line-c" x1="0" y1="0" x2="1" y2="0">
      <stop offset="0%" stop-color="#00c8ff" stop-opacity="0"/>
      <stop offset="50%" stop-color="#00c8ff" stop-opacity="0.8"/>
      <stop offset="100%" stop-color="#00c8ff" stop-opacity="0"/>
    </linearGradient>
  </defs>
  <rect width="1080" height="1080" fill="#070a0f"/>
  <rect width="1080" height="1080" fill="url(#grid)"/>
  <rect width="1080" height="1080" fill="url(#scan)"/>
  <ellipse cx="700" cy="400" rx="500" ry="400" fill="url(#orb-o)" opacity="0.5"/>
  <path d="M60 115 L60 60 L115 60" fill="none" stroke="#ff9900" stroke-width="1.5" opacity="0.2"/>
  <path d="M965 60 L1020 60 L1020 115" fill="none" stroke="#ff9900" stroke-width="1.5" opacity="0.2"/>
  <path d="M60 965 L60 1020 L115 1020" fill="none" stroke="#ff9900" stroke-width="1.5" opacity="0.2"/>
  <path d="M965 1020 L1020 1020 L1020 965" fill="none" stroke="#ff9900" stroke-width="1.5" opacity="0.2"/>
  <text x="64" y="104" font-family="'Syne', 'Arial Black', 'Helvetica Neue', sans-serif" font-size="18" font-weight="800" letter-spacing="3" fill="#8b949e">CRYP<tspan fill="#00ff88">VIEW</tspan></text>
  <rect x="800" y="75" width="91.5" height="22" rx="2" fill="none" stroke="#00ff88" stroke-width="1" opacity="0.4"/>
  <text x="812" y="90" font-family="'Space Mono', 'Courier New', monospace" font-size="10" fill="#00ff88" letter-spacing="1.5" opacity="0.8">ORDERFLOW</text>
  <line x1="64" y1="130" x2="1016" y2="130" stroke="#1c2333" stroke-width="1"/>
  <text x="64" y="270" font-family="'Space Mono', 'Courier New', monospace" font-size="13" fill="#ff9900" letter-spacing="3">DELTA CUMULATIF — CVD</text>
  <text x="64" y="365" font-family="'Syne', 'Arial Black', 'Helvetica Neue', sans-serif" font-size="68" font-weight="800" fill="#e6edf3">Pression</text>
  <text x="64" y="448" font-family="'Syne', 'Arial Black', 'Helvetica Neue', sans-serif" font-size="68" font-weight="800" fill="#ff9900" filter="url(#go)">directionnelle.</text>
  <rect x="64" y="478" width="60" height="3" fill="#ff9900" rx="1"/>
  <text x="64" y="538" font-family="'Space Mono', 'Courier New', monospace" font-size="16" fill="#8b949e">Delta Ask − Bid par bougie.</text>
  <text x="64" y="564" font-family="'Space Mono', 'Courier New', monospace" font-size="16" fill="#8b949e">CVD : divergences prix / pression.</text>
  <!-- Delta bars -->
  <rect x="64" y="590" width="952" height="240" rx="4" fill="#0d1117" stroke="#1c2333" stroke-width="1"/>
  <line x1="64" y1="710" x2="1016" y2="710" stroke="#1c2333" stroke-width="1" stroke-dasharray="3 3" opacity="0.5"/>
    <rect x="72" y="700" width="56" height="10" fill="#00ff88" rx="1" opacity="0.75"/>  <rect x="133" y="680" width="56" height="30" fill="#00ff88" rx="1" opacity="0.75"/>  <rect x="194" y="710" width="56" height="7" fill="#ff3d5a" rx="1" opacity="0.75"/>  <rect x="255" y="663" width="56" height="47" fill="#00ff88" rx="1" opacity="0.75"/>  <rect x="316" y="710" width="56" height="13" fill="#ff3d5a" rx="1" opacity="0.75"/>  <rect x="377" y="673" width="56" height="37" fill="#00ff88" rx="1" opacity="0.75"/>  <rect x="438" y="649" width="56" height="61" fill="#00ff88" rx="1" opacity="0.75"/>  <rect x="499" y="710" width="56" height="18" fill="#ff3d5a" rx="1" opacity="0.75"/>  <rect x="560" y="630" width="56" height="80" fill="#00ff88" rx="1" opacity="0.75"/>  <rect x="621" y="670" width="56" height="40" fill="#00ff88" rx="1" opacity="0.75"/>  <rect x="682" y="710" width="56" height="25" fill="#ff3d5a" rx="1" opacity="0.75"/>  <rect x="743" y="610" width="56" height="100" fill="#00ff88" rx="1" opacity="0.75"/>
  <!-- CVD sparkline -->
    <path d="M 72,820 L 133,815 L 194,816 L 255,808 L 316,810 L 377,804 L 438,792 L 499,796 L 560,781 L 621,774 L 682,778 L 743,761" fill="none" stroke="#ff9900" stroke-width="2" opacity="0.7"/>
  <circle cx="743" cy="761" r="4" fill="#ff9900"/>
  <text x="72" y="852" font-family="'Space Mono', 'Courier New', monospace" font-size="10" fill="#2d3748" letter-spacing="2">CVD CUMULATIF</text>
  <!-- Legend -->
  <circle cx="64" cy="900" r="5" fill="#00ff88"/>
  <text x="78" y="904" font-family="'Space Mono', 'Courier New', monospace" font-size="12" fill="#8b949e">Delta positif (acheteurs)</text>
  <circle cx="340" cy="900" r="5" fill="#ff3d5a"/>
  <text x="354" y="904" font-family="'Space Mono', 'Courier New', monospace" font-size="12" fill="#8b949e">Delta négatif (vendeurs)</text>
  <line x1="600" y1="900" x2="624" y2="900" stroke="#ff9900" stroke-width="2"/>
  <text x="632" y="904" font-family="'Space Mono', 'Courier New', monospace" font-size="12" fill="#8b949e">CVD cumulatif</text>
  <line x1="60" y1="1028" x2="1020" y2="1028" stroke="#1c2333" stroke-width="1"/>
  <text x="540" y="1052" font-family="'Space Mono', 'Courier New', monospace" font-size="11" fill="#2d3748" text-anchor="middle" letter-spacing="2" opacity="0.7">crypview.betacapital.enterprise</text>
</svg>