<svg width="1080" height="1080" viewBox="0 0 1080 1080" xmlns="http://www.w3.org/2000/svg">
  <defs>
    <pattern id="grid" width="60" height="60" patternUnits="userSpaceOnUse">
      <path d="M60 0 L0 0 0 60" fill="none" stroke="#00ff88" stroke-width="0.3" opacity="0.07"/>
    </pattern>
    <pattern id="scan" width="1080" height="4" patternUnits="userSpaceOnUse">
      <rect width="1080" height="2" fill="#00ff88" opacity="0.008"/>
    </pattern>
    <filter id="gg" x="-50%" y="-50%" width="200%" height="200%">
      <feGaussianBlur in="SourceAlpha" stdDeviation="6" result="b"/>
      <feFlood flood-color="#00ff88" flood-opacity="0.55" result="c"/>
      <feComposite in="c" in2="b" operator="in" result="g"/>
      <feMerge><feMergeNode in="g"/><feMergeNode in="SourceGraphic"/></feMerge>
    </filter>
    <filter id="gc" x="-50%" y="-50%" width="200%" height="200%">
      <feGaussianBlur in="SourceAlpha" stdDeviation="6" result="b"/>
      <feFlood flood-color="#00c8ff" flood-opacity="0.55" result="c"/>
      <feComposite in="c" in2="b" operator="in" result="g"/>
      <feMerge><feMergeNode in="g"/><feMergeNode in="SourceGraphic"/></feMerge>
    </filter>
    <filter id="go" x="-50%" y="-50%" width="200%" height="200%">
      <feGaussianBlur in="SourceAlpha" stdDeviation="5" result="b"/>
      <feFlood flood-color="#ff9900" flood-opacity="0.5" result="c"/>
      <feComposite in="c" in2="b" operator="in" result="g"/>
      <feMerge><feMergeNode in="g"/><feMergeNode in="SourceGraphic"/></feMerge>
    </filter>
    <filter id="gp" x="-50%" y="-50%" width="200%" height="200%">
      <feGaussianBlur in="SourceAlpha" stdDeviation="5" result="b"/>
      <feFlood flood-color="#e040fb" flood-opacity="0.5" result="c"/>
      <feComposite in="c" in2="b" operator="in" result="g"/>
      <feMerge><feMergeNode in="g"/><feMergeNode in="SourceGraphic"/></feMerge>
    </filter>
    <filter id="gr" x="-50%" y="-50%" width="200%" height="200%">
      <feGaussianBlur in="SourceAlpha" stdDeviation="5" result="b"/>
      <feFlood flood-color="#ff3d5a" flood-opacity="0.5" result="c"/>
      <feComposite in="c" in2="b" operator="in" result="g"/>
      <feMerge><feMergeNode in="g"/><feMergeNode in="SourceGraphic"/></feMerge>
    </filter>
    <radialGradient id="orb-g" cx="50%" cy="50%" r="50%">
      <stop offset="0%" stop-color="#00ff88" stop-opacity="0.13"/>
      <stop offset="100%" stop-color="#00ff88" stop-opacity="0"/>
    </radialGradient>
    <radialGradient id="orb-c" cx="50%" cy="50%" r="50%">
      <stop offset="0%" stop-color="#00c8ff" stop-opacity="0.10"/>
      <stop offset="100%" stop-color="#00c8ff" stop-opacity="0"/>
    </radialGradient>
    <radialGradient id="orb-o" cx="50%" cy="50%" r="50%">
      <stop offset="0%" stop-color="#ff9900" stop-opacity="0.10"/>
      <stop offset="100%" stop-color="#ff9900" stop-opacity="0"/>
    </radialGradient>
    <radialGradient id="orb-p" cx="50%" cy="50%" r="50%">
      <stop offset="0%" stop-color="#e040fb" stop-opacity="0.10"/>
      <stop offset="100%" stop-color="#e040fb" stop-opacity="0"/>
    </radialGradient>
    <linearGradient id="line-g" x1="0" y1="0" x2="1" y2="0">
      <stop offset="0%" stop-color="#00ff88" stop-opacity="0"/>
      <stop offset="50%" stop-color="#00ff88" stop-opacity="0.8"/>
      <stop offset="100%" stop-color="#00ff88" stop-opacity="0"/>
    </linearGradient>
    <linearGradient id="line-c" x1="0" y1="0" x2="1" y2="0">
      <stop offset="0%" stop-color="#00c8ff" stop-opacity="0"/>
      <stop offset="50%" stop-color="#00c8ff" stop-opacity="0.8"/>
      <stop offset="100%" stop-color="#00c8ff" stop-opacity="0"/>
    </linearGradient>
  </defs>
  <rect width="1080" height="1080" fill="#070a0f"/>
  <rect width="1080" height="1080" fill="url(#grid)"/>
  <rect width="1080" height="1080" fill="url(#scan)"/>
  <ellipse cx="800" cy="500" rx="480" ry="420" fill="url(#orb-p)" opacity="0.4"/>
  <path d="M60 115 L60 60 L115 60" fill="none" stroke="#e040fb" stroke-width="1.5" opacity="0.2"/>
  <path d="M965 60 L1020 60 L1020 115" fill="none" stroke="#e040fb" stroke-width="1.5" opacity="0.2"/>
  <path d="M60 965 L60 1020 L115 1020" fill="none" stroke="#e040fb" stroke-width="1.5" opacity="0.2"/>
  <path d="M965 1020 L1020 1020 L1020 965" fill="none" stroke="#e040fb" stroke-width="1.5" opacity="0.2"/>
  <text x="64" y="104" font-family="'Syne', 'Arial Black', 'Helvetica Neue', sans-serif" font-size="18" font-weight="800" letter-spacing="3" fill="#8b949e">CRYP<tspan fill="#00ff88">VIEW</tspan></text>
  <rect x="800" y="75" width="129.0" height="22" rx="2" fill="none" stroke="#00ff88" stroke-width="1" opacity="0.4"/>
  <text x="812" y="90" font-family="'Space Mono', 'Courier New', monospace" font-size="10" fill="#00ff88" letter-spacing="1.5" opacity="0.8">VOLUME PROFILE</text>
  <line x1="64" y1="130" x2="1016" y2="130" stroke="#1c2333" stroke-width="1"/>
  <text x="64" y="270" font-family="'Space Mono', 'Courier New', monospace" font-size="13" fill="#e040fb" letter-spacing="3">POC · VAH · VAL</text>
  <text x="64" y="368" font-family="'Syne', 'Arial Black', 'Helvetica Neue', sans-serif" font-size="76" font-weight="800" fill="#e6edf3">Là où le</text>
  <text x="64" y="451" font-family="'Syne', 'Arial Black', 'Helvetica Neue', sans-serif" font-size="76" font-weight="800" fill="#e040fb" filter="url(#gp)">marché trade.</text>
  <rect x="64" y="480" width="60" height="3" fill="#e040fb" rx="1"/>
  <text x="64" y="540" font-family="'Space Mono', 'Courier New', monospace" font-size="16" fill="#8b949e">Distribution du volume par niveau de prix.</text>
  <text x="64" y="566" font-family="'Space Mono', 'Courier New', monospace" font-size="16" fill="#8b949e">POC = niveau de contrôle. Aimant de prix.</text>
  <!-- Profile bars -->
    <rect x="64" y="610" width="46" height="37" fill="#00ff88" rx="1" opacity="0.4"/>
  <text x="552" y="636" font-family="'Space Mono', 'Courier New', monospace" font-size="10" fill="#8b949e">67,350</text>
    <rect x="64" y="650" width="70" height="37" fill="#00ff88" rx="1" opacity="0.4"/>
  <text x="552" y="676" font-family="'Space Mono', 'Courier New', monospace" font-size="10" fill="#8b949e">67,300</text>
    <rect x="64" y="690" width="117" height="37" fill="#00ff88" rx="1" opacity="0.4"/>
  <text x="552" y="716" font-family="'Space Mono', 'Courier New', monospace" font-size="10" fill="#8b949e">67,250</text>
    <rect x="64" y="730" width="163" height="37" fill="#00ff88" rx="1" opacity="0.4"/>
  <text x="552" y="756" font-family="'Space Mono', 'Courier New', monospace" font-size="10" fill="#8b949e">67,200</text>
    <rect x="64" y="770" width="222" height="37" fill="#00ff88" rx="1" opacity="0.4"/>
  <text x="552" y="796" font-family="'Space Mono', 'Courier New', monospace" font-size="10" fill="#8b949e">67,150</text>
    <rect x="64" y="810" width="304" height="37" fill="#00ff88" rx="1" opacity="0.4"/>
  <text x="552" y="836" font-family="'Space Mono', 'Courier New', monospace" font-size="10" fill="#8b949e">67,100</text>
    <rect x="64" y="850" width="374" height="37" fill="#00ff88" rx="1" opacity="0.4"/>
  <text x="552" y="876" font-family="'Space Mono', 'Courier New', monospace" font-size="10" fill="#8b949e">67,050</text>
    <rect x="64" y="890" width="480" height="37" fill="#e040fb" rx="1" opacity="0.8"/>
  <text x="552" y="916" font-family="'Space Mono', 'Courier New', monospace" font-size="10" fill="#8b949e">67,000</text>
  <line x1="64" y1="910" x2="1016" y2="910" stroke="#e040fb" stroke-width="1.5" stroke-dasharray="5 3" opacity="0.7"/><text x="932" y="914" font-family="'Space Mono', 'Courier New', monospace" font-size="10" fill="#e040fb" font-weight="700">POC</text>  <rect x="64" y="930" width="374" height="37" fill="#00ff88" rx="1" opacity="0.4"/>
  <text x="552" y="956" font-family="'Space Mono', 'Courier New', monospace" font-size="10" fill="#8b949e">66,950</text>
    <rect x="64" y="970" width="280" height="37" fill="#00ff88" rx="1" opacity="0.4"/>
  <text x="552" y="996" font-family="'Space Mono', 'Courier New', monospace" font-size="10" fill="#8b949e">66,900</text>
    <rect x="64" y="1010" width="187" height="37" fill="#00ff88" rx="1" opacity="0.4"/>
  <text x="552" y="1036" font-family="'Space Mono', 'Courier New', monospace" font-size="10" fill="#8b949e">66,850</text>
    <rect x="64" y="1050" width="128" height="37" fill="#00ff88" rx="1" opacity="0.4"/>
  <text x="552" y="1076" font-family="'Space Mono', 'Courier New', monospace" font-size="10" fill="#8b949e">66,800</text>
    <rect x="64" y="1090" width="93" height="37" fill="#00ff88" rx="1" opacity="0.4"/>
  <text x="552" y="1116" font-family="'Space Mono', 'Courier New', monospace" font-size="10" fill="#8b949e">66,750</text>
    <rect x="64" y="1130" width="58" height="37" fill="#00ff88" rx="1" opacity="0.4"/>
  <text x="552" y="1156" font-family="'Space Mono', 'Courier New', monospace" font-size="10" fill="#8b949e">66,700</text>
    <rect x="64" y="1170" width="40" height="37" fill="#00ff88" rx="1" opacity="0.4"/>
  <text x="552" y="1196" font-family="'Space Mono', 'Courier New', monospace" font-size="10" fill="#8b949e">66,650</text>
  
  <!-- Legend -->
  <rect x="64" y="1220" width="10" height="10" fill="#e040fb" rx="1" opacity="0.8"/>
  <text x="82" y="1230" font-family="'Space Mono', 'Courier New', monospace" font-size="11" fill="#8b949e">POC</text>
  <rect x="160" y="1220" width="10" height="10" fill="#00ff88" rx="1" opacity="0.5"/>
  <text x="178" y="1230" font-family="'Space Mono', 'Courier New', monospace" font-size="11" fill="#8b949e">Volume</text>
  <line x1="60" y1="1028" x2="1020" y2="1028" stroke="#1c2333" stroke-width="1"/>
  <text x="540" y="1052" font-family="'Space Mono', 'Courier New', monospace" font-size="11" fill="#2d3748" text-anchor="middle" letter-spacing="2" opacity="0.7">crypview.betacapital.enterprise</text>
</svg>